<svg id="Layer_1" data-name="Layer 1" xmlns="http://www.w3.org/2000/svg" viewBox="0 0 618.94 190.51"><defs><style>.cls-1{fill:#14254c;}.cls-2{fill:#72bf44;}.cls-3{fill:#3d81c3;}</style></defs><path class="cls-1" d="M240.07,74.91c0-18.18,13.93-31.32,32.64-31.32,9.92,0,18.44,3.56,24.1,10.18l-7.31,6.87a21.41,21.41,0,0,0-16.27-7.13c-12.62,0-21.76,8.87-21.76,21.4s9.14,21.41,21.76,21.41A21.19,21.19,0,0,0,289.5,89.1l7.31,7c-5.66,6.61-14.18,10.18-24.19,10.18C254,106.24,240.07,93.1,240.07,74.91Z" transform="translate(-5.59 -5.16)"/><path class="cls-1" d="M363.3,91.27H332.84l-6,14.1H315.17l27.41-60.91h11.14l27.5,60.91H369.39Zm-3.75-8.87L348.07,55.77,336.67,82.4Z" transform="translate(-5.59 -5.16)"/><path class="cls-1" d="M457.36,66.12c0,13.41-9.92,21.67-25.93,21.67H417.68v17.58H406.37V44.46h25.06C447.44,44.46,457.36,52.64,457.36,66.12Zm-11.39,0C446,58.47,440.83,54,430.91,54H417.68V78.22h13.23C440.83,78.22,446,73.78,446,66.12Z" transform="translate(-5.59 -5.16)"/><path class="cls-1" d="M525.94,105.37,513.49,87.53a20.43,20.43,0,0,1-2.35.09H497.4v17.75H486.08V44.46h25.06c16,0,25.94,8.18,25.94,21.66,0,9.23-4.7,16-13,19.23l14,20ZM510.62,54H497.4V78.31h13.22c9.92,0,15.06-4.53,15.06-12.19S520.54,54,510.62,54Z" transform="translate(-5.59 -5.16)"/><path class="cls-1" d="M606.61,91.27H576.15l-6,14.1H558.48L585.9,44.46H597l27.5,60.91H612.7Zm-3.75-8.87L591.38,55.77,580,82.4Z" transform="translate(-5.59 -5.16)"/><path class="cls-1" d="M259.82,151.5c0,3.47-2.62,5.45-7.72,5.45h-9.64V136.77h9.06c4.64,0,7.24,2,7.24,5.22a4.8,4.8,0,0,1-2.71,4.5A4.87,4.87,0,0,1,259.82,151.5Zm-14.47-12.39v6.45h5.91c2.94,0,4.61-1.09,4.61-3.23s-1.67-3.22-4.61-3.22Zm11.56,12.16c0-2.33-1.73-3.37-4.93-3.37h-6.63v6.72H252C255.18,154.62,256.91,153.61,256.91,151.27Z" transform="translate(-5.59 -5.16)"/><path class="cls-1" d="M272.94,136.77h2.89V157h-2.89Z" transform="translate(-5.59 -5.16)"/><path class="cls-1" d="M288.89,146.86c0-5.91,4.55-10.32,10.75-10.32s10.7,4.38,10.7,10.32-4.55,10.33-10.7,10.33S288.89,152.77,288.89,146.86Zm18.57,0a7.85,7.85,0,1,0-7.82,7.76A7.58,7.58,0,0,0,307.46,146.86Z" transform="translate(-5.59 -5.16)"/><path class="cls-1" d="M321.56,154.65l1.06-2.25a10.43,10.43,0,0,0,6.67,2.33c3.49,0,5-1.35,5-3.11,0-4.93-12.22-1.82-12.22-9.31,0-3.12,2.42-5.77,7.73-5.77a11.8,11.8,0,0,1,6.48,1.79l-.95,2.3a10.46,10.46,0,0,0-5.53-1.64c-3.44,0-4.91,1.44-4.91,3.2,0,4.93,12.23,1.85,12.23,9.26,0,3.08-2.48,5.74-7.81,5.74A12,12,0,0,1,321.56,154.65Z" transform="translate(-5.59 -5.16)"/><path class="cls-1" d="M348.32,146.86c0-6,4.55-10.32,10.7-10.32a10,10,0,0,1,7.67,3.14l-1.88,1.82a7.49,7.49,0,0,0-5.68-2.39,7.76,7.76,0,1,0,0,15.51,7.52,7.52,0,0,0,5.68-2.42l1.88,1.81a10,10,0,0,1-7.7,3.18C352.87,157.19,348.32,152.83,348.32,146.86Z" transform="translate(-5.59 -5.16)"/><path class="cls-1" d="M379.46,136.77h2.88V157h-2.88Z" transform="translate(-5.59 -5.16)"/><path class="cls-1" d="M411.7,154.45V157H397.05V136.77h14.24v2.51H399.93v6.2h10.12v2.45H399.93v6.52Z" transform="translate(-5.59 -5.16)"/><path class="cls-1" d="M442.38,136.77V157H440l-12.11-15v15H425V136.77h2.36l12.11,15v-15Z" transform="translate(-5.59 -5.16)"/><path class="cls-1" d="M455.44,146.86c0-6,4.55-10.32,10.7-10.32a10,10,0,0,1,7.67,3.14l-1.88,1.82a7.49,7.49,0,0,0-5.68-2.39,7.76,7.76,0,1,0,0,15.51,7.52,7.52,0,0,0,5.68-2.42l1.88,1.81a10,10,0,0,1-7.7,3.18C460,157.19,455.44,152.83,455.44,146.86Z" transform="translate(-5.59 -5.16)"/><path class="cls-1" d="M501.23,154.45V157H486.58V136.77h14.24v2.51H489.46v6.2h10.12v2.45H489.46v6.52Z" transform="translate(-5.59 -5.16)"/><path class="cls-1" d="M512.7,154.65l1.07-2.25a10.42,10.42,0,0,0,6.66,2.33c3.49,0,5-1.35,5-3.11,0-4.93-12.23-1.82-12.23-9.31,0-3.12,2.43-5.77,7.73-5.77a11.81,11.81,0,0,1,6.49,1.79l-.95,2.3a10.47,10.47,0,0,0-5.54-1.64c-3.43,0-4.9,1.44-4.9,3.2,0,4.93,12.23,1.85,12.23,9.26,0,3.08-2.48,5.74-7.82,5.74A12,12,0,0,1,512.7,154.65Z" transform="translate(-5.59 -5.16)"/><path class="cls-2" d="M185.36,100.33A84.42,84.42,0,1,1,82.59,18v-11a95.27,95.27,0,1,0,113.7,93.39Z" transform="translate(-5.59 -5.16)"/><path class="cls-3" d="M170,59.7c-.18-.21-18.15-21-31.89-36.61C122.28,5.16,108.92,5.16,100.93,5.16V15.9c7,0,16.51,0,29.12,14.29,2.48,2.81,5.11,5.8,7.74,8.81L71.4,101.77h0L14,156.27l7.36,7.81,24.75-23.69c3.79-3.57,9.73-7.62,16.69-7.62h68.93L121.4,143.05H109.7v10.74h12.14a10.31,10.31,0,0,0,6.85-2.84l18.49-18.49a10.31,10.31,0,0,0,2.84-6.85v-16h0V85.89a7.59,7.59,0,0,1,7.27-7.45l4.41-.1c5.45-.12,9.54-2.37,11.23-6.17S173.54,63.82,170,59.7Zm-8.53,7.91-4.41.1a18.3,18.3,0,0,0-17.77,18.18v29a7.17,7.17,0,0,1-7.16,7.16H65.59L144.85,47.1c9.17,10.52,16.89,19.47,17,19.61a9.66,9.66,0,0,1,.63.82A9.21,9.21,0,0,1,161.46,67.61Z" transform="translate(-5.59 -5.16)"/></svg>